<svg width="58" height="66" viewBox="0 0 58 66" fill="none" xmlns="http://www.w3.org/2000/svg">
<g filter="url(#filter0_d_1_345)">
<path d="M5.89 25V0.699998H9.28V22.57H15.49V25H5.89ZM22.3138 25.24C21.0338 25.24 20.0238 24.98 19.2838 24.46C18.5438 23.94 18.0138 23.2 17.6938 22.24C17.3938 21.28 17.2438 20.15 17.2438 18.85V13.81C17.2438 12.51 17.3938 11.38 17.6938 10.42C18.0138 9.46 18.5438 8.72 19.2838 8.2C20.0238 7.68 21.0338 7.42 22.3138 7.42C23.5938 7.42 24.5938 7.68 25.3138 8.2C26.0538 8.72 26.5738 9.46 26.8738 10.42C27.1938 11.38 27.3538 12.51 27.3538 13.81V18.85C27.3538 20.15 27.1938 21.28 26.8738 22.24C26.5738 23.2 26.0538 23.94 25.3138 24.46C24.5938 24.98 23.5938 25.24 22.3138 25.24ZM22.3138 22.87C22.9338 22.87 23.3638 22.69 23.6038 22.33C23.8638 21.97 24.0138 21.5 24.0538 20.92C24.1138 20.32 24.1438 19.7 24.1438 19.06V13.63C24.1438 12.97 24.1138 12.35 24.0538 11.77C24.0138 11.19 23.8638 10.72 23.6038 10.36C23.3638 9.98 22.9338 9.79 22.3138 9.79C21.6938 9.79 21.2538 9.98 20.9938 10.36C20.7338 10.72 20.5738 11.19 20.5138 11.77C20.4738 12.35 20.4538 12.97 20.4538 13.63V19.06C20.4538 19.7 20.4738 20.32 20.5138 20.92C20.5738 21.5 20.7338 21.97 20.9938 22.33C21.2538 22.69 21.6938 22.87 22.3138 22.87ZM34.788 30.37C33.748 30.37 32.808 30.26 31.968 30.04C31.128 29.82 30.468 29.47 29.988 28.99C29.508 28.51 29.268 27.88 29.268 27.1C29.268 26.54 29.388 26.05 29.628 25.63C29.868 25.21 30.178 24.85 30.558 24.55C30.938 24.23 31.338 23.97 31.758 23.77C31.198 23.61 30.778 23.36 30.498 23.02C30.218 22.66 30.078 22.29 30.078 21.91C30.078 21.27 30.248 20.72 30.588 20.26C30.928 19.8 31.398 19.3 31.998 18.76C31.338 18.26 30.838 17.62 30.498 16.84C30.158 16.06 29.988 14.98 29.988 13.6C29.988 12.24 30.168 11.11 30.528 10.21C30.908 9.29 31.458 8.6 32.178 8.14C32.918 7.66 33.818 7.42 34.878 7.42C35.818 7.42 36.568 7.58 37.128 7.9C37.708 8.22 38.148 8.7 38.448 9.34C38.548 9.18 38.818 8.91 39.258 8.53C39.698 8.13 40.208 7.8 40.788 7.54L41.268 7.33L42.078 9.4C41.818 9.44 41.468 9.54 41.028 9.7C40.608 9.84 40.208 9.99 39.828 10.15C39.468 10.29 39.238 10.41 39.138 10.51C39.278 10.85 39.398 11.34 39.498 11.98C39.618 12.62 39.678 13.19 39.678 13.69C39.678 14.87 39.528 15.91 39.228 16.81C38.928 17.71 38.428 18.42 37.728 18.94C37.048 19.44 36.098 19.69 34.878 19.69C34.618 19.69 34.338 19.67 34.038 19.63C33.738 19.59 33.468 19.54 33.228 19.48C33.108 19.66 32.978 19.87 32.838 20.11C32.718 20.35 32.658 20.58 32.658 20.8C32.658 21.02 32.768 21.2 32.988 21.34C33.228 21.46 33.598 21.54 34.098 21.58L36.798 21.82C38.158 21.94 39.168 22.35 39.828 23.05C40.488 23.75 40.818 24.75 40.818 26.05C40.818 26.99 40.598 27.78 40.158 28.42C39.718 29.08 39.048 29.57 38.148 29.89C37.268 30.21 36.148 30.37 34.788 30.37ZM35.028 27.85C36.168 27.85 37.008 27.71 37.548 27.43C38.088 27.17 38.358 26.74 38.358 26.14C38.358 25.78 38.288 25.48 38.148 25.24C38.028 25 37.798 24.81 37.458 24.67C37.118 24.53 36.628 24.43 35.988 24.37L33.258 24.13C33.038 24.35 32.828 24.57 32.628 24.79C32.428 25.01 32.268 25.24 32.148 25.48C32.028 25.74 31.968 26.01 31.968 26.29C31.968 26.81 32.188 27.2 32.628 27.46C33.068 27.72 33.868 27.85 35.028 27.85ZM34.878 17.44C35.338 17.44 35.698 17.36 35.958 17.2C36.238 17.02 36.448 16.77 36.588 16.45C36.728 16.11 36.818 15.7 36.858 15.22C36.918 14.74 36.948 14.2 36.948 13.6C36.948 13 36.918 12.46 36.858 11.98C36.818 11.48 36.728 11.06 36.588 10.72C36.468 10.36 36.268 10.09 35.988 9.91C35.728 9.73 35.368 9.64 34.908 9.64C34.468 9.64 34.098 9.73 33.798 9.91C33.518 10.09 33.308 10.35 33.168 10.69C33.028 11.01 32.928 11.42 32.868 11.92C32.808 12.4 32.778 12.96 32.778 13.6C32.778 14.14 32.798 14.65 32.838 15.13C32.898 15.59 32.998 15.99 33.138 16.33C33.298 16.67 33.518 16.94 33.798 17.14C34.078 17.34 34.438 17.44 34.878 17.44ZM47.9779 25.24C46.6979 25.24 45.6879 24.98 44.9479 24.46C44.2079 23.94 43.6779 23.2 43.3579 22.24C43.0579 21.28 42.9079 20.15 42.9079 18.85V13.81C42.9079 12.51 43.0579 11.38 43.3579 10.42C43.6779 9.46 44.2079 8.72 44.9479 8.2C45.6879 7.68 46.6979 7.42 47.9779 7.42C49.2579 7.42 50.2579 7.68 50.9779 8.2C51.7179 8.72 52.2379 9.46 52.5379 10.42C52.8579 11.38 53.0179 12.51 53.0179 13.81V18.85C53.0179 20.15 52.8579 21.28 52.5379 22.24C52.2379 23.2 51.7179 23.94 50.9779 24.46C50.2579 24.98 49.2579 25.24 47.9779 25.24ZM47.9779 22.87C48.5979 22.87 49.0279 22.69 49.2679 22.33C49.5279 21.97 49.6779 21.5 49.7179 20.92C49.7779 20.32 49.8079 19.7 49.8079 19.06V13.63C49.8079 12.97 49.7779 12.35 49.7179 11.77C49.6779 11.19 49.5279 10.72 49.2679 10.36C49.0279 9.98 48.5979 9.79 47.9779 9.79C47.3579 9.79 46.9179 9.98 46.6579 10.36C46.3979 10.72 46.2379 11.19 46.1779 11.77C46.1379 12.35 46.1179 12.97 46.1179 13.63V19.06C46.1179 19.7 46.1379 20.32 46.1779 20.92C46.2379 21.5 46.3979 21.97 46.6579 22.33C46.9179 22.69 47.3579 22.87 47.9779 22.87ZM10.24 52.24C9.34 52.24 8.61 52.07 8.05 51.73C7.51 51.39 7.11 50.91 6.85 50.29C6.61 49.67 6.49 48.94 6.49 48.1V36.79H4.66V34.66H6.49V29.59H9.7V34.66H12.49V36.79H9.7V47.89C9.7 48.57 9.81 49.06 10.03 49.36C10.25 49.64 10.67 49.78 11.29 49.78C11.45 49.78 11.63 49.77 11.83 49.75C12.05 49.73 12.26 49.71 12.46 49.69V52.06C12.06 52.12 11.69 52.16 11.35 52.18C11.01 52.22 10.64 52.24 10.24 52.24ZM14.5785 56.35V53.89C15.3585 53.89 15.9785 53.85 16.4385 53.77C16.8985 53.71 17.2285 53.58 17.4285 53.38C17.6285 53.2 17.7285 52.94 17.7285 52.6C17.7285 52.42 17.6585 52.02 17.5185 51.4C17.3785 50.78 17.2285 50.12 17.0685 49.42L13.5885 34.66H16.8285L19.1685 47.62L21.4185 34.66H24.6585L20.5185 52.96C20.3385 53.8 20.0085 54.46 19.5285 54.94C19.0485 55.44 18.4285 55.8 17.6685 56.02C16.9285 56.24 16.0285 56.35 14.9685 56.35H14.5785ZM26.5966 57.7V34.66H29.8066V36.04C30.1866 35.6 30.6466 35.22 31.1866 34.9C31.7266 34.58 32.3666 34.42 33.1066 34.42C34.0066 34.42 34.7166 34.66 35.2366 35.14C35.7766 35.6 36.1766 36.19 36.4366 36.91C36.6966 37.61 36.8666 38.33 36.9466 39.07C37.0266 39.79 37.0666 40.41 37.0666 40.93V45.13C37.0666 46.35 36.9466 47.51 36.7066 48.61C36.4666 49.69 36.0266 50.57 35.3866 51.25C34.7666 51.91 33.8866 52.24 32.7466 52.24C32.1266 52.24 31.5766 52.09 31.0966 51.79C30.6166 51.47 30.1866 51.11 29.8066 50.71V57.7H26.5966ZM32.1166 49.72C32.6766 49.72 33.0766 49.52 33.3166 49.12C33.5566 48.7 33.7066 48.14 33.7666 47.44C33.8266 46.74 33.8566 45.97 33.8566 45.13V40.93C33.8566 40.21 33.8166 39.55 33.7366 38.95C33.6566 38.33 33.4866 37.84 33.2266 37.48C32.9666 37.12 32.5566 36.94 31.9966 36.94C31.5766 36.94 31.1766 37.03 30.7966 37.21C30.4166 37.39 30.0866 37.6 29.8066 37.84V48.94C30.1066 49.16 30.4466 49.35 30.8266 49.51C31.2066 49.65 31.6366 49.72 32.1166 49.72ZM44.7852 52.24C43.4252 52.24 42.3752 51.98 41.6352 51.46C40.8952 50.92 40.3752 50.14 40.0752 49.12C39.7952 48.08 39.6552 46.81 39.6552 45.31V41.35C39.6552 39.81 39.8052 38.53 40.1052 37.51C40.4052 36.49 40.9252 35.72 41.6652 35.2C42.4252 34.68 43.4652 34.42 44.7852 34.42C46.2452 34.42 47.3152 34.72 47.9952 35.32C48.6952 35.92 49.1552 36.79 49.3752 37.93C49.5952 39.05 49.7052 40.4 49.7052 41.98V43.39H42.8652V46.87C42.8652 47.57 42.9252 48.14 43.0452 48.58C43.1852 49.02 43.3952 49.35 43.6752 49.57C43.9752 49.77 44.3552 49.87 44.8152 49.87C45.2952 49.87 45.6552 49.76 45.8952 49.54C46.1552 49.3 46.3252 48.97 46.4052 48.55C46.5052 48.11 46.5552 47.6 46.5552 47.02V45.97H49.6752V46.63C49.6752 48.37 49.3052 49.74 48.5652 50.74C47.8252 51.74 46.5652 52.24 44.7852 52.24ZM42.8652 41.65H46.5552V40.09C46.5552 39.37 46.5152 38.77 46.4352 38.29C46.3552 37.79 46.1852 37.42 45.9252 37.18C45.6852 36.92 45.2952 36.79 44.7552 36.79C44.2352 36.79 43.8352 36.91 43.5552 37.15C43.2952 37.39 43.1152 37.8 43.0152 38.38C42.9152 38.94 42.8652 39.72 42.8652 40.72V41.65Z" fill="black"/>
</g>
<defs>
<filter id="filter0_d_1_345" x="0.659973" y="0.699951" width="56.3579" height="65" filterUnits="userSpaceOnUse" color-interpolation-filters="sRGB">
<feFlood flood-opacity="0" result="BackgroundImageFix"/>
<feColorMatrix in="SourceAlpha" type="matrix" values="0 0 0 0 0 0 0 0 0 0 0 0 0 0 0 0 0 0 127 0" result="hardAlpha"/>
<feOffset dy="4"/>
<feGaussianBlur stdDeviation="2"/>
<feComposite in2="hardAlpha" operator="out"/>
<feColorMatrix type="matrix" values="0 0 0 0 0 0 0 0 0 0 0 0 0 0 0 0 0 0 0.25 0"/>
<feBlend mode="normal" in2="BackgroundImageFix" result="effect1_dropShadow_1_345"/>
<feBlend mode="normal" in="SourceGraphic" in2="effect1_dropShadow_1_345" result="shape"/>
</filter>
</defs>
</svg>
